<svg height='300px' width='300px'  fill="#000000" xmlns="http://www.w3.org/2000/svg" viewBox="0 0 64 64" x="0px" y="0px"><title>back, arrow</title><g><path d="M56.49,36.46A16.94,16.94,0,0,1,39.57,53.39H10a2.5,2.5,0,1,1,0-5H39.57a11.93,11.93,0,0,0,0-23.85H17L22.45,29a2.5,2.5,0,0,1-3.17,3.87L8.42,24l-.08-.08-.19-.19v0l-.06-.05h0a.61.61,0,0,0-.07-.1l-.13-.2,0-.05a.43.43,0,0,1,0-.07.3.3,0,0,1,0-.1.85.85,0,0,1-.09-.22h0c0-.08,0-.16-.07-.24a1.7,1.7,0,0,1,0-.22l0-.14v-.13s0-.07,0-.11,0-.07,0-.11V21.8l0-.14a1.43,1.43,0,0,1,0-.22c0-.09,0-.16.07-.24h0a2.29,2.29,0,0,1,.1-.23l0-.1a.43.43,0,0,0,0-.07l0,0,.13-.2a.61.61,0,0,0,.07-.1h0l.08-.08.18-.18a.6.6,0,0,1,.08-.08h0l10.84-8.91A2.5,2.5,0,1,1,22.45,15L17,19.54H39.57A16.94,16.94,0,0,1,56.49,36.46Z"></path></g></svg>