<svg height='300px' width='300px'  fill="#000000" xmlns="http://www.w3.org/2000/svg" xmlns:xlink="http://www.w3.org/1999/xlink" version="1.1" x="0px" y="0px" viewBox="0 0 100 100" enable-background="new 0 0 100 100" xml:space="preserve"><path d="M95,50v20c0,14-11,25-25,25H30C16,95,5,84,5,70V30C5,16,16,5,30,5h20v13l-20,0c-7,0-12,5-12,12v40c0,7,5,12,12,12h40  c7,0,12-5,12-12V50H95z M45.615,40.231l14.153,14.153l24.06-24.061L69.675,16.172L45.615,40.231z M93.026,21.125  c2.832-2.832,2.831-8.491-1.415-12.737c-4.246-4.246-9.907-4.246-12.737-1.416l-3.539,3.538l14.154,14.153L93.026,21.125z   M39.954,45.893L35,65l19.106-4.953L39.954,45.893z"></path></svg>