<svg height='300px' width='300px'  fill="#000000" xmlns="http://www.w3.org/2000/svg" xmlns:xlink="http://www.w3.org/1999/xlink" xml:space="preserve" style="shape-rendering:geometricPrecision;text-rendering:geometricPrecision;image-rendering:optimizeQuality;" viewBox="0 0 6.82666 6.82666" x="0px" y="0px" fill-rule="evenodd" clip-rule="evenodd"><defs><style type="text/css">
   
    .fil1 {fill:none}
    .fil0 {fill:#000000;fill-rule:nonzero}
   
  </style></defs><g><g><polygon class="fil0" points="0.906665,0.994512 4.74191,0.994512 4.79525,0.994512 4.79525,1.04785 4.79525,3.18492 4.72944,3.07094 4.7177,3.05061 4.68858,3.02642 4.68858,1.10118 0.96,1.10118 0.96,5.56732 4.68858,5.56732 4.68858,4.92165 4.79525,5.10641 4.79525,5.62065 4.79525,5.67399 4.74191,5.67399 0.906665,5.67399 0.853331,5.67399 0.853331,5.62065 0.853331,1.04785 0.853331,0.994512 "></polygon><g><polygon class="fil0" points="1.47825,1.80585 4.17032,1.80585 4.17032,1.91252 1.47825,1.91252 "></polygon><path class="fil0" d="M1.47825 2.39587l2.2127 0 0.0182874 0.106669 -2.23098 0 0 -0.106669zm2.45121 0l0.240858 0 0 0.106669 -0.112441 0 -0.128417 -0.106669z"></path><polygon class="fil0" points="1.47825,2.9859 3.79209,2.9859 3.81037,3.09257 1.47825,3.09257 "></polygon><polygon class="fil0" points="1.47825,3.57593 3.91162,3.57593 3.97321,3.6826 1.47825,3.6826 "></polygon><polygon class="fil0" points="1.47825,4.16595 4.17032,4.16595 4.17032,4.27262 1.47825,4.27262 "></polygon><polygon class="fil0" points="1.47825,4.75598 4.17032,4.75598 4.17032,4.86265 1.47825,4.86265 "></polygon></g></g><g><path class="fil0" d="M5.90054 5.56624l-0.427866 0.247028c-0.0380394,0.0219606 -0.082189,0.0240118 -0.122661,0.00964567 -0.0378031,-0.0134134 -0.0726142,-0.0413898 -0.0952835,-0.0806535l-1.28796 -2.23082 -0.00487402 -0.00844094 -0.00158661 -0.00926772 -0.169217 -0.987201 -0.0243071 -0.141791 0.110764 0.092 0.770539 0.640028 0.00749606 0.00622835 0.00458661 0.00794094 1.28796 2.23082 0 0.000208661c0.0226654,0.0392598 0.0294961,0.0832874 0.022248,0.122579 -0.00783858,0.0424606 -0.0316811,0.0797874 -0.0696299,0.101697l-0.000208661 0zm-0.48078 0.154949l0.427709 -0.246937 -5.11811e-005 -9.05512e-005c0.00974409,-0.00562598 0.016063,-0.0162362 0.018378,-0.0287835 0.00288976,-0.0156654 -9.84252e-005,-0.0337126 -0.00965354,-0.0503425l-9.05512e-005 5.11811e-005 -1.28338 -2.22288 -0.652283 -0.541799 0.143323 0.836138 1.28309 2.22238c0.00961024,0.0166417 0.0236929,0.0282717 0.038622,0.0335669 0.0122441,0.00434646 0.024685,0.00425984 0.0343307,-0.00130709z"></path><polygon class="fil0" points="4.64058,3.18364 4.03926,3.53081 3.98635,3.43874 4.58767,3.09156 "></polygon><polygon class="fil0" points="5.76804,5.13645 5.16672,5.48363 5.1138,5.39155 5.71513,5.04437 "></polygon></g></g><rect class="fil1" width="6.82666" height="6.82666"></rect></svg>